<svg aria-hidden="true" style="position: absolute; width: 0; height: 0; overflow: hidden;" version="1.1" xmlns="http://www.w3.org/2000/svg" xmlns:xlink="http://www.w3.org/1999/xlink">
<defs>
<symbol id="icon-playlist_add" viewBox="0 0 24 24">
<title>playlist_add</title>
<path d="M2.016 15.984v-1.969h7.969v1.969h-7.969zM18 14.016h3.984v1.969h-3.984v4.031h-2.016v-4.031h-3.984v-1.969h3.984v-4.031h2.016v4.031zM14.016 6v2.016h-12v-2.016h12zM14.016 9.984v2.016h-12v-2.016h12z"></path>
</symbol>
<symbol id="icon-location_onplaceroom" viewBox="0 0 24 24">
<title>location_onplaceroom</title>
<path d="M12 11.484q1.031 0 1.758-0.727t0.727-1.758-0.727-1.758-1.758-0.727-1.758 0.727-0.727 1.758 0.727 1.758 1.758 0.727zM12 2.016q2.906 0 4.945 2.039t2.039 4.945q0 1.453-0.727 3.328t-1.758 3.516-2.039 3.070-1.711 2.273l-0.75 0.797q-0.281-0.328-0.75-0.867t-1.688-2.156-2.133-3.141-1.664-3.445-0.75-3.375q0-2.906 2.039-4.945t4.945-2.039z"></path>
</symbol>
<symbol id="icon-message" viewBox="0 0 24 24">
<title>message</title>
<path d="M18 8.016v-2.016h-12v2.016h12zM18 11.016v-2.016h-12v2.016h12zM18 14.016v-2.016h-12v2.016h12zM20.016 2.016q0.797 0 1.383 0.586t0.586 1.383v12q0 0.797-0.586 1.406t-1.383 0.609h-14.016l-3.984 3.984v-18q0-0.797 0.586-1.383t1.383-0.586h16.031z"></path>
</symbol>
<symbol id="icon-clearclose" viewBox="0 0 24 24">
<title>clearclose</title>
<path d="M18.984 6.422l-5.578 5.578 5.578 5.578-1.406 1.406-5.578-5.578-5.578 5.578-1.406-1.406 5.578-5.578-5.578-5.578 1.406-1.406 5.578 5.578 5.578-5.578z"></path>
</symbol>
<symbol id="icon-keyboard" viewBox="0 0 24 24">
<title>keyboard</title>
<path d="M18.984 9.984v-1.969h-1.969v1.969h1.969zM18.984 12.984v-1.969h-1.969v1.969h1.969zM15.984 9.984v-1.969h-1.969v1.969h1.969zM15.984 12.984v-1.969h-1.969v1.969h1.969zM15.984 17.016v-2.016h-7.969v2.016h7.969zM6.984 9.984v-1.969h-1.969v1.969h1.969zM6.984 12.984v-1.969h-1.969v1.969h1.969zM8.016 11.016v1.969h1.969v-1.969h-1.969zM8.016 8.016v1.969h1.969v-1.969h-1.969zM11.016 11.016v1.969h1.969v-1.969h-1.969zM11.016 8.016v1.969h1.969v-1.969h-1.969zM20.016 5.016q0.797 0 1.383 0.586t0.586 1.383v10.031q0 0.797-0.586 1.383t-1.383 0.586h-16.031q-0.797 0-1.383-0.586t-0.586-1.383v-10.031q0-0.797 0.586-1.383t1.383-0.586h16.031z"></path>
</symbol>
<symbol id="icon-keyboard_arrow_down" viewBox="0 0 24 24">
<title>keyboard_arrow_down</title>
<path d="M7.406 8.578l4.594 4.594 4.594-4.594 1.406 1.406-6 6-6-6z"></path>
</symbol>
<symbol id="icon-person" viewBox="0 0 24 24">
<title>person</title>
<path d="M12 14.016q2.531 0 5.273 1.102t2.742 2.883v2.016h-16.031v-2.016q0-1.781 2.742-2.883t5.273-1.102zM12 12q-1.641 0-2.813-1.172t-1.172-2.813 1.172-2.836 2.813-1.195 2.813 1.195 1.172 2.836-1.172 2.813-2.813 1.172z"></path>
</symbol>
<symbol id="icon-person_add" viewBox="0 0 24 24">
<title>person_add</title>
<path d="M15 14.016q2.531 0 5.273 1.102t2.742 2.883v2.016h-16.031v-2.016q0-1.781 2.742-2.883t5.273-1.102zM6 9.984h3v2.016h-3v3h-2.016v-3h-3v-2.016h3v-3h2.016v3zM15 12q-1.641 0-2.813-1.172t-1.172-2.813 1.172-2.836 2.813-1.195 2.813 1.195 1.172 2.836-1.172 2.813-2.813 1.172z"></path>
</symbol>
<symbol id="icon-star_outline" viewBox="0 0 24 24">
<title>star_outline</title>
<path d="M12 15.422l3.75 2.25-0.984-4.266 3.328-2.906-4.406-0.375-1.688-4.031-1.688 4.031-4.406 0.375 3.328 2.906-0.984 4.266zM21.984 9.234l-5.438 4.734 1.641 7.031-6.188-3.75-6.188 3.75 1.641-7.031-5.438-4.734 7.172-0.609 2.813-6.609 2.813 6.609z"></path>
</symbol>
<symbol id="icon-exit_to_app" viewBox="0 0 24 24">
<title>exit_to_app</title>
<path d="M18.984 3q0.797 0 1.406 0.609t0.609 1.406v13.969q0 0.797-0.609 1.406t-1.406 0.609h-13.969q-0.844 0-1.43-0.586t-0.586-1.43v-3.984h2.016v3.984h13.969v-13.969h-13.969v3.984h-2.016v-3.984q0-0.844 0.586-1.43t1.43-0.586h13.969zM10.078 15.609l2.578-2.625h-9.656v-1.969h9.656l-2.578-2.625 1.406-1.406 5.016 5.016-5.016 5.016z"></path>
</symbol>
<symbol id="icon-open_in_browser" viewBox="0 0 24 24">
<title>open_in_browser</title>
<path d="M12 9.984l3.984 4.031h-3v6h-1.969v-6h-3zM18.984 3.984q0.844 0 1.43 0.586t0.586 1.43v12q0 0.797-0.609 1.406t-1.406 0.609h-3.984v-2.016h3.984v-9.984h-13.969v9.984h3.984v2.016h-3.984q-0.844 0-1.43-0.586t-0.586-1.43v-12q0-0.844 0.586-1.43t1.43-0.586h13.969z"></path>
</symbol>
<symbol id="icon-supervised_user_circle" viewBox="0 0 24 24">
<title>supervised_user_circle</title>
<path d="M12 20.016q2.484 0 4.523-1.43t2.93-3.68q-1.406-1.125-3.844-1.125-1.359 0-2.883 0.586t-1.523 1.523v4.078q0.281 0.047 0.797 0.047zM9.609 15.891q0-1.641 1.875-2.672-1.172-0.234-1.875-0.234-1.266 0-2.859 0.445t-2.297 1.242q0.656 1.781 2.016 3.094t3.141 1.875v-3.75zM9.609 6.75q-0.984 0-1.688 0.703t-0.703 1.688 0.703 1.664 1.688 0.68 1.664-0.68 0.68-1.664-0.68-1.688-1.664-0.703zM15.609 8.344q-0.797 0-1.359 0.563t-0.563 1.359 0.563 1.359 1.359 0.563 1.359-0.563 0.563-1.359-0.563-1.359-1.359-0.563zM12 2.016q4.125 0 7.055 2.93t2.93 7.055-2.93 7.055-7.055 2.93q-4.172 0-7.102-2.93t-2.93-7.055 2.93-7.055 7.102-2.93z"></path>
</symbol>
</defs>
</svg>
